<svg xmlns="http://www.w3.org/2000/svg" width="97.965" height="91.962" viewBox="0 0 97.965 91.962">
  <g id="g4149" transform="matrix(-0.766, 0.643, -0.643, -0.766, 97.677, 35.484)">
    <path id="path7" d="M1,11.69a15.221,15.221,0,0,1,21.525,0,15.221,15.221,0,0,0,21.525,0,15.221,15.221,0,0,1,21.525,0,15.221,15.221,0,0,0,21.525,0" transform="translate(0 26.639)" fill="none" stroke="rgba(0,0,0,0.37)" stroke-linecap="round" stroke-linejoin="round" stroke-width="4"/>
    <path id="path9" d="M1,8.19a15.221,15.221,0,0,1,21.525,0,15.217,15.217,0,0,0,10.762,4.458A15.208,15.208,0,0,0,44.05,8.19a15.221,15.221,0,0,1,21.525,0,15.217,15.217,0,0,0,10.762,4.458A15.208,15.208,0,0,0,87.1,8.19" transform="translate(0 0)" fill="none" stroke="rgba(0,0,0,0.37)" stroke-linecap="round" stroke-linejoin="round" stroke-width="4"/>
  </g>
</svg>
