<svg xmlns="http://www.w3.org/2000/svg" xmlns:xlink="http://www.w3.org/1999/xlink" width="100" zoomAndPan="magnify" viewBox="0 0 75 37.5" height="50" preserveAspectRatio="xMidYMid meet" version="1.0"><defs><clipPath id="a17eb4f0a0"><path d="M 25.800781 0 L 48.003906 0 L 48.003906 37 L 25.800781 37 Z M 25.800781 0 " clipRule="nonzero"/></clipPath><clipPath id="82fd7f86fb"><path d="M 26.351562 17.792969 L 47.816406 17.792969 L 47.816406 19.273438 L 26.351562 19.273438 Z M 26.351562 17.792969 " clipRule="nonzero"/></clipPath></defs><g clipPath="url(#a17eb4f0a0)"><path fill="#000000" d="M 44.128906 36.964844 L 25.804688 18.5625 L 44.257812 0.0351562 L 48.007812 3.800781 L 33.308594 18.5625 L 47.882812 33.199219 L 44.128906 36.964844 " fillOpacity="1" fillRule="nonzero"/></g><g clipPath="url(#82fd7f86fb)"><path fill="#000000" d="M 46.914062 17.792969 L 27.253906 17.792969 C 26.867188 17.792969 26.550781 18.121094 26.550781 18.53125 C 26.550781 18.941406 26.867188 19.273438 27.253906 19.273438 L 46.914062 19.273438 C 47.300781 19.273438 47.617188 18.941406 47.617188 18.53125 C 47.617188 18.121094 47.300781 17.792969 46.914062 17.792969 Z M 46.914062 17.792969 " fillOpacity="1" fillRule="nonzero"/></g></svg>