<svg xmlns="http://www.w3.org/2000/svg" xmlns:xlink="http://www.w3.org/1999/xlink" width="100" zoomAndPan="magnify" viewBox="0 0 75 37.5" height="50" preserveAspectRatio="xMidYMid meet" version="1.0"><defs><clipPath id="9ff828e112"><path d="M 26.445312 0 L 48.648438 0 L 48.648438 37 L 26.445312 37 Z M 26.445312 0 " clipRule="nonzero"/></clipPath><clipPath id="3ea57380e6"><path d="M 26.351562 17.792969 L 47.816406 17.792969 L 47.816406 19.273438 L 26.351562 19.273438 Z M 26.351562 17.792969 " clipRule="nonzero"/></clipPath></defs><g clipPath="url(#9ff828e112)"><path fill="#000000" d="M 30.320312 0.0390625 L 48.644531 18.441406 L 30.191406 36.972656 L 26.441406 33.203125 L 41.140625 18.441406 L 26.566406 3.808594 L 30.320312 0.0390625 " fillOpacity="1" fillRule="nonzero"/></g><g clipPath="url(#3ea57380e6)"><path fill="#000000" d="M 46.914062 17.792969 L 27.253906 17.792969 C 26.867188 17.792969 26.550781 18.121094 26.550781 18.53125 C 26.550781 18.941406 26.867188 19.273438 27.253906 19.273438 L 46.914062 19.273438 C 47.300781 19.273438 47.617188 18.941406 47.617188 18.53125 C 47.617188 18.121094 47.300781 17.792969 46.914062 17.792969 Z M 46.914062 17.792969 " fillOpacity="1" fillRule="nonzero"/></g></svg>