<svg xmlns="http://www.w3.org/2000/svg" xmlns:xlink="http://www.w3.org/1999/xlink" width="40" zoomAndPan="magnify" viewBox="0 0 30 30.000001" height="40" preserveAspectRatio="xMidYMid meet" version="1.0"><defs><clipPath id="a4cd3f9139"><path d="M 0.484375 0 L 29.515625 0 L 29.515625 29.03125 L 0.484375 29.03125 Z M 0.484375 0 " clip-rule="nonzero"/></clipPath></defs><g clip-path="url(#a4cd3f9139)"><path fill="#000000" d="M 0.484375 27.585938 C 0.484375 26.789062 1.132812 26.140625 1.929688 26.140625 C 15.546875 26.140625 26.625 15.0625 26.625 1.445312 C 26.625 0.648438 27.273438 0 28.070312 0 C 28.867188 0 29.515625 0.648438 29.515625 1.445312 C 29.515625 5.167969 28.789062 8.78125 27.347656 12.183594 C 25.957031 15.46875 23.96875 18.417969 21.4375 20.949219 C 18.90625 23.484375 15.953125 25.472656 12.671875 26.863281 C 9.269531 28.300781 5.65625 29.03125 1.933594 29.03125 C 1.132812 29.03125 0.484375 28.386719 0.484375 27.585938 Z M 0.484375 27.585938 " fill-opacity="1" fill-rule="nonzero"/></g></svg>