<svg xmlns="http://www.w3.org/2000/svg" xmlns:xlink="http://www.w3.org/1999/xlink" width="40" zoomAndPan="magnify" viewBox="0 0 30 30.000001" height="40" preserveAspectRatio="xMidYMid meet" version="1.0"><defs><clipPath id="ed3fb0c392"><path d="M 0.484375 0 L 29.515625 0 L 29.515625 29.03125 L 0.484375 29.03125 Z M 0.484375 0 " clipRule="nonzero"/></clipPath></defs><g clipPath="url(#ed3fb0c392)"><path fill="#000000" d="M 28.070312 29.03125 C 27.273438 29.03125 26.625 28.386719 26.625 27.585938 C 26.625 13.96875 15.546875 2.890625 1.929688 2.890625 C 1.132812 2.890625 0.484375 2.242188 0.484375 1.445312 C 0.484375 0.648438 1.132812 0 1.929688 0 C 5.652344 0 9.265625 0.726562 12.667969 2.167969 C 15.953125 3.558594 18.902344 5.546875 21.433594 8.078125 C 23.964844 10.609375 25.953125 13.5625 27.34375 16.847656 C 28.785156 20.246094 29.511719 23.859375 29.511719 27.585938 C 29.515625 28.386719 28.867188 29.03125 28.070312 29.03125 Z M 28.070312 29.03125 " fillOpacity="1" fillRule="nonzero"/></g></svg>