<svg xmlns="http://www.w3.org/2000/svg" xmlns:xlink="http://www.w3.org/1999/xlink" width="100" zoomAndPan="magnify" viewBox="0 0 75 37.5" height="50" preserveAspectRatio="xMidYMid meet" version="1.0"><defs><clipPath id="11ff26d635"><path d="M 41.886719 0 L 64.089844 0 L 64.089844 37 L 41.886719 37 Z M 41.886719 0 " clipRule="nonzero"/></clipPath><clipPath id="40893d0dbb"><path d="M 13.25 16.917969 L 62 16.917969 L 62 19.875 L 13.25 19.875 Z M 13.25 16.917969 " clipRule="nonzero"/></clipPath></defs><g clipPath="url(#11ff26d635)"><path fill="#000000" d="M 45.761719 0.0390625 L 64.085938 18.441406 L 45.632812 36.972656 L 41.882812 33.203125 L 56.582031 18.441406 L 42.007812 3.808594 L 45.761719 0.0390625 " fillOpacity="1" fillRule="nonzero"/></g><g clipPath="url(#40893d0dbb)"><path fill="#000000" d="M 60.019531 16.917969 L 15.332031 16.917969 C 14.449219 16.917969 13.734375 17.578125 13.734375 18.394531 C 13.734375 19.214844 14.449219 19.875 15.332031 19.875 L 60.019531 19.875 C 60.902344 19.875 61.617188 19.214844 61.617188 18.394531 C 61.617188 17.578125 60.902344 16.917969 60.019531 16.917969 Z M 60.019531 16.917969 " fillOpacity="1" fillRule="nonzero"/></g></svg>