<svg xmlns="http://www.w3.org/2000/svg" xmlns:xlink="http://www.w3.org/1999/xlink" width="100" zoomAndPan="magnify" viewBox="0 0 75 37.5" height="50" preserveAspectRatio="xMidYMid meet" version="1.0"><defs><clipPath id="52450a7af2"><path d="M 10.558594 0 L 32.761719 0 L 32.761719 37 L 10.558594 37 Z M 10.558594 0 " clip-rule="nonzero"/></clipPath><clipPath id="14924d2cad"><path d="M 13.25 16.917969 L 62 16.917969 L 62 19.875 L 13.25 19.875 Z M 13.25 16.917969 " clip-rule="nonzero"/></clipPath></defs><g clip-path="url(#52450a7af2)"><path fill="#000000" d="M 28.886719 36.964844 L 10.5625 18.5625 L 29.015625 0.0351562 L 32.765625 3.800781 L 18.066406 18.5625 L 32.640625 33.199219 L 28.886719 36.964844 " fill-opacity="1" fill-rule="nonzero"/></g><g clip-path="url(#14924d2cad)"><path fill="#000000" d="M 60.019531 16.917969 L 15.332031 16.917969 C 14.449219 16.917969 13.734375 17.578125 13.734375 18.394531 C 13.734375 19.214844 14.449219 19.875 15.332031 19.875 L 60.019531 19.875 C 60.902344 19.875 61.617188 19.214844 61.617188 18.394531 C 61.617188 17.578125 60.902344 16.917969 60.019531 16.917969 Z M 60.019531 16.917969 " fill-opacity="1" fill-rule="nonzero"/></g></svg>