<svg xmlns="http://www.w3.org/2000/svg" xmlns:xlink="http://www.w3.org/1999/xlink" width="100" zoomAndPan="magnify" viewBox="0 0 75 74.999997" height="100" preserveAspectRatio="xMidYMid meet" version="1.0"><defs><clipPath id="5578e9a227"><path d="M 5 11 L 65 11 L 65 41 L 5 41 Z M 5 11 " clip-rule="nonzero"/></clipPath><clipPath id="5428e87c61"><path d="M 15.8125 -0.5 L 65.359375 12.074219 L 54.925781 53.1875 L 5.378906 40.613281 Z M 15.8125 -0.5 " clip-rule="nonzero"/></clipPath><clipPath id="c604ad4175"><path d="M 5.660156 39.507812 C 6.816406 36.9375 8.078125 35.070312 9.359375 34.21875 C 10.523438 33.390625 11.816406 32.933594 13.464844 32.847656 C 15.867188 32.671875 19.886719 33.859375 22.546875 34.648438 C 24.695312 35.246094 26.417969 36.640625 28.222656 36.816406 C 29.753906 36.980469 31.480469 36.578125 32.632812 36.027344 C 33.582031 35.59375 34.070312 35.214844 34.828125 34.226562 C 36.257812 32.347656 37.730469 26.324219 39.070312 24.363281 C 39.773438 23.363281 40.273438 22.929688 41.027344 22.394531 C 41.847656 21.816406 42.746094 21.371094 43.761719 21.125 C 44.84375 20.835938 45.96875 20.617188 47.445312 20.765625 C 49.75 20.960938 54.332031 23.246094 56.191406 23.210938 C 57.035156 23.203125 57.460938 22.859375 58.082031 22.625 C 58.703125 22.390625 59.363281 22.21875 59.863281 21.785156 C 60.378906 21.300781 60.765625 20.667969 61.070312 19.90625 C 61.511719 18.839844 61.925781 17.203125 62.085938 15.898438 C 62.222656 14.699219 61.582031 13.023438 61.953125 12.441406 C 62.152344 12.101562 62.746094 11.972656 63.011719 12.039062 C 63.273438 12.105469 63.589844 12.410156 63.640625 12.648438 C 63.667969 12.988281 63.230469 13.832031 62.9375 13.871094 C 62.648438 13.910156 61.832031 13.140625 61.808594 12.796875 C 61.824219 12.523438 62.339844 12.035156 62.628906 11.996094 C 62.867188 11.945312 63.234375 12.039062 63.445312 12.316406 C 63.828125 12.804688 64.058594 14.097656 64.054688 15.21875 C 64.0625 16.738281 63.421875 19.265625 62.78125 20.675781 C 62.355469 21.691406 62.011719 22.386719 61.164062 23.070312 C 60.027344 24.015625 57.980469 25.011719 56.054688 25.082031 C 53.5625 25.179688 49.851562 22.78125 47.476562 22.625 C 45.816406 22.542969 44.417969 22.746094 43.214844 23.285156 C 42.132812 23.796875 41.390625 24.503906 40.460938 25.726562 C 38.910156 27.859375 37.597656 33.699219 35.96875 35.695312 C 35.054688 36.867188 34.078125 37.402344 33.058594 37.875 C 32.160156 38.320312 31.265625 38.542969 30.339844 38.644531 C 29.417969 38.746094 28.679688 38.785156 27.609375 38.570312 C 26.070312 38.234375 24.121094 37.066406 22.089844 36.4375 C 19.695312 35.71875 16.28125 34.570312 14.078125 34.628906 C 12.5625 34.636719 11.441406 34.859375 10.289062 35.632812 C 8.875 36.5625 7.675781 40.1875 6.75 40.511719 C 6.382812 40.644531 5.972656 40.484375 5.804688 40.273438 C 5.617188 40.113281 5.660156 39.507812 5.660156 39.507812 " clip-rule="nonzero"/></clipPath><clipPath id="b8931f1a67"><path d="M 13 27 L 72 27 L 72 57 L 13 57 Z M 13 27 " clip-rule="nonzero"/></clipPath><clipPath id="44690d84ec"><path d="M 23.3125 15.25 L 72.859375 27.824219 L 62.425781 68.9375 L 12.878906 56.363281 Z M 23.3125 15.25 " clip-rule="nonzero"/></clipPath><clipPath id="836e33e739"><path d="M 13.160156 55.257812 C 14.316406 52.6875 15.578125 50.820312 16.859375 49.96875 C 18.023438 49.140625 19.316406 48.683594 20.964844 48.597656 C 23.367188 48.421875 27.386719 49.609375 30.046875 50.398438 C 32.195312 50.996094 33.917969 52.390625 35.722656 52.566406 C 37.253906 52.730469 38.980469 52.328125 40.132812 51.777344 C 41.082031 51.34375 41.570312 50.964844 42.328125 49.976562 C 43.757812 48.097656 45.230469 42.074219 46.570312 40.113281 C 47.273438 39.113281 47.773438 38.679688 48.527344 38.144531 C 49.347656 37.566406 50.246094 37.121094 51.261719 36.875 C 52.34375 36.585938 53.46875 36.367188 54.945312 36.515625 C 57.25 36.710938 61.832031 38.996094 63.691406 38.960938 C 64.535156 38.953125 64.960938 38.609375 65.582031 38.375 C 66.203125 38.140625 66.863281 37.96875 67.363281 37.535156 C 67.878906 37.050781 68.265625 36.417969 68.570312 35.65625 C 69.011719 34.589844 69.425781 32.953125 69.585938 31.648438 C 69.722656 30.449219 69.082031 28.773438 69.453125 28.191406 C 69.652344 27.851562 70.246094 27.722656 70.511719 27.789062 C 70.773438 27.855469 71.089844 28.160156 71.140625 28.398438 C 71.167969 28.738281 70.730469 29.582031 70.4375 29.621094 C 70.148438 29.660156 69.332031 28.890625 69.308594 28.546875 C 69.324219 28.273438 69.839844 27.785156 70.128906 27.746094 C 70.367188 27.695312 70.734375 27.789062 70.945312 28.066406 C 71.328125 28.554688 71.558594 29.847656 71.554688 30.96875 C 71.5625 32.488281 70.921875 35.015625 70.28125 36.425781 C 69.855469 37.441406 69.511719 38.136719 68.664062 38.820312 C 67.527344 39.765625 65.480469 40.761719 63.554688 40.832031 C 61.0625 40.929688 57.351562 38.53125 54.976562 38.375 C 53.316406 38.292969 51.917969 38.496094 50.714844 39.035156 C 49.632812 39.546875 48.890625 40.253906 47.960938 41.476562 C 46.410156 43.609375 45.097656 49.449219 43.46875 51.445312 C 42.554688 52.617188 41.578125 53.152344 40.558594 53.625 C 39.660156 54.070312 38.765625 54.292969 37.839844 54.394531 C 36.917969 54.496094 36.179688 54.535156 35.109375 54.320312 C 33.570312 53.984375 31.621094 52.816406 29.589844 52.1875 C 27.195312 51.46875 23.78125 50.320312 21.578125 50.378906 C 20.0625 50.386719 18.941406 50.609375 17.789062 51.382812 C 16.375 52.3125 15.175781 55.9375 14.25 56.261719 C 13.882812 56.394531 13.472656 56.234375 13.304688 56.023438 C 13.117188 55.863281 13.160156 55.257812 13.160156 55.257812 " clip-rule="nonzero"/></clipPath></defs><g clip-path="url(#5578e9a227)"><g clip-path="url(#5428e87c61)"><g clip-path="url(#c604ad4175)"><path fill="#545454" d="M 14.105469 -2.617188 L 67.339844 10.894531 L 56.105469 55.167969 L 2.871094 41.660156 Z M 14.105469 -2.617188 " fill-opacity="1" fill-rule="nonzero"/></g></g></g><g clip-path="url(#b8931f1a67)"><g clip-path="url(#44690d84ec)"><g clip-path="url(#836e33e739)"><path fill="#545454" d="M 21.605469 13.132812 L 74.839844 26.644531 L 63.605469 70.917969 L 10.371094 57.410156 Z M 21.605469 13.132812 " fill-opacity="1" fill-rule="nonzero"/></g></g></g></svg>